:SAMPLES-PER-SECOND 30
:FULLY-SPECIFIED
:DEGREES
383
root  -38.4912 39.9206 11.0273 175.847 60.6184 174.778
RightUpLeg  -15.8178 -4.8005 -10.9648
RightLeg  11.3186 -15.2318 -4.51545
RightFoot  2.66581 -0.991684 8.18755
RightToes  -5.8209e-011 0 -3.6325e-017
Spine  2.71027 -3.42831 -13.0212
Spine1  19.9717 -9.01507 12.2902
HEad  -22.948 -9.7087 3.49924
LeftShoulder1  1.29527 -3.31778 -11.847
LeftArm  -15.4444 -46.9529 -45.6734
LeftForeArm  -5.40789 -33.1056 -7.64069
LeftHand  -0.989546 -4.61442 11.7375
RightShoulder  1.03881 1.50741 13.8666
RightArm  -17.5097 -18.9097 55.0889
RightForeArm  22.6648 20.1172 4.92165
RightHand  -0.618386 4.94248 -7.24029
LeftUpLeg  5.97309 3.03614 -2.52974
LeftLeg  8.00257 31.5236 1.76229
LeftFoot  -11.6763 0.0528252 -5.8465
LeftToes  6.82088e-011 -2.45093e-011 5.71991e-013
384
root  -38.0456 39.9077 10.9596 176.085 64.3058 174.732
RightUpLeg  -14.9909 -5.92186 -10.5678
RightLeg  8.65758 -17.7709 -4.69931
RightFoot  4.09337 -1.42384 10.677
RightToes  -5.8209e-011 0 -3.6325e-017
Spine  1.74425 -3.46662 -13.4249
Spine1  20.3609 -9.64724 14.0234
HEad  -23.1707 -6.88842 3.49383
LeftShoulder1  1.04309 -2.33485 -10.6265
LeftArm  -4.15461 -47.485 -50.1168
LeftForeArm  -0.57136 -37.2527 -8.5664
LeftHand  -0.856737 -4.67758 10.1588
RightShoulder  1.14475 2.0161 13.8713
RightArm  -19.3785 -20.9577 53.5891
RightForeArm  24.0672 17.7771 6.26335
RightHand  -0.703745 4.45217 -8.56599
LeftUpLeg  7.09607 3.29975 -2.30386
LeftLeg  6.91858 34.3182 1.31893
LeftFoot  -11.488 0.0595682 -7.22201
LeftToes  6.82088e-011 -2.45093e-011 5.71991e-013
385
root  -37.5125 39.9105 10.9495 177.013 67.0807 175.404
RightUpLeg  -14.2729 -7.79069 -9.76833
RightLeg  6.87962 -18.6169 -3.55506
RightFoot  5.88009 -1.71738 11.5941
RightToes  -5.8209e-011 0 -3.6325e-017
Spine  1.04168 -3.93919 -13.9009
Spine1  20.8057 -10.8725 15.9453
HEad  -23.4813 -4.09481 3.47725
LeftShoulder1  0.979345 -1.99287 -10.5557
LeftArm  4.60704 -46.6228 -53.3296
LeftForeArm  4.33453 -41.9593 -9.78843
LeftHand  -0.814546 -4.91989 9.4582
RightShoulder  1.19148 2.17049 14.1594
RightArm  -21.6458 -22.4472 52.103
RightForeArm  26.7458 15.3209 7.58223
RightHand  -0.710573 4.27617 -8.79431
LeftUpLeg  8.31756 3.5063 -1.66734
LeftLeg  5.61896 35.8055 0.738938
LeftFoot  -11.1644 0.0801979 -8.70543
LeftToes  6.82088e-011 -2.45093e-011 5.71991e-013
386
root  -36.8953 39.9217 10.9784 178.977 69.3701 177.307
RightUpLeg  -13.7394 -8.26411 -8.56863
RightLeg  6.12081 -17.5183 -2.06415
RightFoot  6.81199 -1.63603 10.5026
RightToes  -5.8209e-011 0 -3.6325e-017
Spine  0.780322 -4.70545 -13.5491
Spine1  20.995 -12.1243 17.0553
HEad  -23.6691 -1.42794 3.41935
LeftShoulder1  1.08539 -2.38927 -11.2178
LeftArm  11.2622 -44.3634 -56.2182
LeftForeArm  8.69751 -45.498 -10.7893
LeftHand  -0.807775 -5.09269 9.23765
RightShoulder  1.20263 2.12835 14.5504
RightArm  -25.5511 -23.8143 51.2073
RightForeArm  30.5766 12.8278 8.43063
RightHand  -0.667112 4.39238 -8.18327
LeftUpLeg  9.63872 3.96053 -0.380155
LeftLeg  4.77834 35.9099 0.364021
LeftFoot  -10.7197 0.121522 -10.56
LeftToes  6.82088e-011 -2.45093e-011 5.71991e-013
387
root  -36.1808 39.9358 11.0578 -178.568 71.4085 179.784
RightUpLeg  -13.3084 -7.52306 -7.06388
RightLeg  5.97875 -15.7686 -1.43405
RightFoot  6.5671 -1.48977 9.72194
RightToes  -5.8209e-011 0 -3.6325e-017
Spine  0.579688 -5.59288 -12.9238
Spine1  21.1479 -13.2746 17.545
HEad  -23.8367 0.679948 3.47093
LeftShoulder1  1.28499 -3.15184 -12.2076
LeftArm  16.5519 -40.8557 -59.9873
LeftForeArm  10.7719 -46.3593 -10.9914
LeftHand  -0.876265 -4.93141 10.1368
RightShoulder  1.22891 2.12528 15.0768
RightArm  -29.8085 -25.1927 50.8259
RightForeArm  33.3583 10.5738 8.64427
RightHand  -0.614929 4.32557 -7.61598
LeftUpLeg  10.9249 4.7627 1.34844
LeftLeg  4.70598 34.9971 0.213307
LeftFoot  -10.0578 0.209119 -13.1893
LeftToes  6.82088e-011 -2.45093e-011 5.71991e-013
388
root  -35.39 39.9738 11.2064 -176.894 72.7064 -178.536
RightUpLeg  -12.5877 -6.69716 -5.91005
RightLeg  6.04491 -15.079 -1.41981
RightFoot  5.83375 -1.48263 10.062
RightToes  -5.8209e-011 0 -3.6325e-017
Spine  0.472181 -6.66703 -13.1853
Spine1  21.2846 -14.7657 18.3802
HEad  -24.1595 2.18319 3.59333
LeftShoulder1  1.54305 -3.91465 -13.8521
LeftArm  21.0368 -36.4456 -64.2541
LeftForeArm  9.16124 -44.3956 -10.3524
LeftHand  -1.07195 -4.90348 12.3364
RightShoulder  1.25177 2.06064 15.8117
RightArm  -33.2564 -26.2897 50.6842
RightForeArm  34.6384 8.49051 8.38804
RightHand  -0.59409 4.05321 -7.56316
LeftUpLeg  12.0884 5.59711 3.0388
LeftLeg  5.03669 33.4946 0.116941
LeftFoot  -8.86624 0.400877 -15.9957
LeftToes  6.82088e-011 -2.45093e-011 5.71991e-013
389
root  -34.562 40.0435 11.4057 -176.716 72.9866 -178.327
RightUpLeg  -11.4727 -6.63192 -5.38999
RightLeg  6.27567 -15.0148 -1.25034
RightFoot  4.86894 -1.42228 10.1919
RightToes  -5.8209e-011 0 -3.6325e-017
Spine  0.916684 -8.03361 -14.2955
Spine1  20.9473 -16.691 19.6831
HEad  -24.2852 3.44027 3.51727
LeftShoulder1  1.87297 -4.50392 -16.6887
LeftArm  24.584 -31.1723 -67.2606
LeftForeArm  6.69032 -41.2038 -9.37227
LeftHand  -1.2749 -5.24829 14.1711
RightShoulder  1.21426 1.73328 16.5727
RightArm  -35.7543 -27.037 50.9015
RightForeArm  35.7158 6.60633 7.61896
RightHand  -0.597783 4.12279 -7.55859
LeftUpLeg  13.0442 6.13774 4.42425
LeftLeg  5.68615 31.8961 0.240962
LeftFoot  -7.01771 0.735045 -18.2385
LeftToes  6.82088e-011 -2.45093e-011 5.71991e-013
390
root  -33.7237 40.0965 11.6211 -177.271 72.9787 -178.764
RightUpLeg  -10.4376 -7.00816 -5.12386
RightLeg  7.1188 -14.4652 -0.94231
RightFoot  3.14395 -1.22514 9.78712
RightToes  -5.8209e-011 0 -3.6325e-017
Spine  1.85001 -9.45558 -15.1246
Spine1  20.0507 -18.4379 20.6359
HEad  -23.8206 4.68401 2.97221
LeftShoulder1  2.22394 -4.80868 -20.3343
LeftArm  26.5554 -24.7871 -68.042
LeftForeArm  6.94369 -39.3956 -8.76007
LeftHand  -1.26956 -5.44365 13.854
RightShoulder  1.11303 1.21051 17.04
RightArm  -37.8345 -27.7094 51.7885
RightForeArm  37.1229 5.23349 6.38911
RightHand  -0.588355 4.63973 -7.0914
LeftUpLeg  13.5731 6.92869 5.77174
LeftLeg  7.48431 30.0408 1.0724
LeftFoot  -4.92313 1.20053 -20.6606
LeftToes  6.82088e-011 -2.45093e-011 5.71991e-013
391
root  -32.8959 40.0854 11.8427 -177.6 73.7541 -178.829
RightUpLeg  -9.81635 -7.14652 -4.61887
RightLeg  8.72474 -13.2504 -0.943919
RightFoot  0.780172 -1.02957 9.73725
RightToes  -5.8209e-011 0 -3.6325e-017
Spine  2.59425 -10.4131 -14.9965
Spine1  19.3351 -19.3385 20.7689
HEad  -23.1551 5.78552 2.07006
LeftShoulder1  2.46546 -4.82056 -23.3736
LeftArm  26.949 -17.6275 -67.6179
LeftForeArm  9.78534 -40.4178 -8.91607
LeftHand  -1.073 -5.55722 11.6613
RightShoulder  0.998887 0.70732 17.1733
RightArm  -40.1822 -28.3459 53.2502
RightForeArm  37.9022 4.44844 5.17797
RightHand  -0.552787 5.04547 -6.44047
LeftUpLeg  13.4953 10.3005 7.73965
LeftLeg  11.1581 25.4841 3.06818
LeftFoot  -2.93296 1.81344 -24.0749
LeftToes  6.82088e-011 -2.45093e-011 5.71991e-013
392
root  -32.1134 40.0014 12.0807 -177.72 75.6108 -178.452
RightUpLeg  -9.55164 -6.89771 -3.78689
RightLeg  10.9776 -11.6206 -1.34371
RightFoot  -1.4675 -0.857372 9.77768
RightToes  -5.8209e-011 0 -3.6325e-017
Spine  2.82926 -10.5327 -14.2689
Spine1  19.4674 -19.2105 20.37
HEad  -22.9553 6.3817 1.35632
LeftShoulder1  2.55004 -4.73482 -24.7695
LeftArm  27.0791 -10.9918 -67.2408
LeftForeArm  13.0128 -43.4352 -9.73068
LeftHand  -0.87582 -5.86955 9.34077
RightShoulder  0.909878 0.314404 17.3091
RightArm  -42.0304 -28.4841 54.7204
RightForeArm  36.5949 3.99819 4.38447
RightHand  -0.508131 4.98919 -5.97623
LeftUpLeg  12.4434 15.0503 9.85704
LeftLeg  17.0416 18.6499 6.03683
LeftFoot  -0.685162 2.52926 -26.6238
LeftToes  6.82088e-011 -2.45093e-011 5.71991e-013
393
root  -31.4079 39.8908 12.3282 -178.017 77.9939 -177.963
RightUpLeg  -9.19441 -6.41727 -2.81394
RightLeg  13.2674 -9.81823 -1.84729
RightFoot  -3.20727 -0.649313 8.78933
RightToes  -5.8209e-011 0 -3.6325e-017
Spine  2.92877 -9.86477 -13.4701
Spine1  20.2007 -18.292 19.8377
HEad  -23.063 6.1415 1.21645
LeftShoulder1  2.54385 -4.71723 -24.7608
LeftArm  28.0353 -6.13246 -66.8297
LeftForeArm  15.7623 -46.8664 -10.8353
LeftHand  -0.731269 -6.10423 7.70357
RightShoulder  0.862613 0.0538015 17.774
RightArm  -42.6501 -27.7032 55.5399
RightForeArm  34.186 3.5329 4.14392
RightHand  -0.443312 4.69184 -5.38876
LeftUpLeg  10.1072 13.8772 10.3946
LeftLeg  25.0562 16.3481 8.58667
LeftFoot  3.11605 3.15333 -24.8188
LeftToes  6.82088e-011 -2.45093e-011 5.71991e-013
394
root  -30.7975 39.7524 12.5469 -177.847 80.104 -176.757
RightUpLeg  -8.65257 -5.72756 -1.76012
RightLeg  15.5723 -8.35845 -2.45227
RightFoot  -4.94509 -0.437199 7.20737
RightToes  -5.8209e-011 0 -3.6325e-017
Spine  3.37525 -8.85767 -12.4237
Spine1  20.9418 -17.0263 19.4349
HEad  -22.732 5.09294 1.39256
LeftShoulder1  2.49321 -4.72757 -24.0744
LeftArm  29.496 -3.26541 -65.9984
LeftForeArm  17.8699 -49.7733 -11.9187
LeftHand  -0.607629 -5.97589 6.52724
RightShoulder  0.8763 0.0123154 18.5072
RightArm  -41.8638 -26.0196 55.4903
RightForeArm  32.4385 3.10493 4.42509
RightHand  -0.344565 4.37141 -4.37433
LeftUpLeg  6.80899 10.4673 10.2994
LeftLeg  34.086 14.7025 10.8014
LeftFoot  8.86351 3.30033 -18.7776
LeftToes  6.82088e-011 -2.45093e-011 5.71991e-013
395
root  -30.2592 39.5583 12.6987 -176.37 81.4831 -174.159
RightUpLeg  -8.08396 -4.99212 -0.722477
RightLeg  18.1324 -7.56933 -3.23219
RightFoot  -7.0123 -0.289917 6.44155
RightToes  -5.8209e-011 0 -3.6325e-017
Spine  4.13156 -7.95544 -10.9276
Spine1  21.5721 -15.8177 19.2959
HEad  -21.7845 3.70377 1.40675
LeftShoulder1  2.40279 -4.67158 -23.1267
LeftArm  30.6525 -1.98495 -64.9894
LeftForeArm  18.4422 -51.5718 -12.726
LeftHand  -0.547295 -5.63909 6.07968
RightShoulder  0.954118 0.22899 19.194
RightArm  -39.9396 -23.6418 54.8304
RightForeArm  31.5995 3.09218 5.21223
RightHand  -0.260758 4.0289 -3.48496
LeftUpLeg  2.94241 6.62517 10.0758
LeftLeg  42.6035 11.7894 11.7209
LeftFoot  14.0425 2.88365 -13.0688
LeftToes  6.82088e-011 -2.45093e-011 5.71991e-013
396
root  -29.7124 39.3831 12.7899 -175.049 82.2225 -171.833
RightUpLeg  -7.19188 -4.65706 -0.0654353
RightLeg  20.1632 -7.05569 -3.79192
RightFoot  -8.86503 -0.200867 6.5017
RightToes  -5.8209e-011 0 -3.6325e-017
Spine  4.73639 -7.25299 -9.44402
Spine1  22.1674 -14.7838 19.2176
HEad  -20.8176 2.4808 1.22947
LeftShoulder1  2.30066 -4.59899 -22.0721
LeftArm  31.1038 -1.85773 -64.0107
LeftForeArm  17.478 -52.0531 -13.0524
LeftHand  -0.600558 -5.31684 6.817
RightShoulder  1.05228 0.537938 19.7002
RightArm  -37.2497 -20.5876 53.8483
RightForeArm  30.9772 3.67006 6.42116
RightHand  -0.235769 3.73326 -3.25905
LeftUpLeg  -1.06117 2.78296 9.74131
LeftLeg  49.3907 7.95032 10.2161
LeftFoot  15.5543 2.52615 -10.9212
LeftToes  6.82088e-011 -2.45093e-011 5.71991e-013
397
root  -29.1133 39.3082 12.8536 -175.331 82.7617 -171.406
RightUpLeg  -5.84248 -4.89865 0.062548
RightLeg  20.9345 -6.26321 -3.75585
RightFoot  -10.1192 -0.137775 6.43428
RightToes  -5.8209e-011 0 -3.6325e-017
Spine  4.93567 -6.6179 -8.2689
Spine1  22.554 -13.7666 18.8129
HEad  -20.2886 1.53172 1.13442
LeftShoulder1  2.23396 -4.63888 -21.0536
LeftArm  30.6602 -2.29271 -62.7738
LeftForeArm  16.8039 -51.9115 -13.0372
LeftHand  -0.692904 -4.99438 8.04161
RightShoulder  1.11226 0.708715 20.0934
RightArm  -34.2027 -16.7892 52.6968
RightForeArm  30.737 4.59611 7.79318
RightHand  -0.237401 3.65466 -3.3025
LeftUpLeg  -5.03797 -0.496373 9.33183
LeftLeg  53.9366 4.52791 7.14232
LeftFoot  14.0537 2.40763 -11.0488
LeftToes  6.82088e-011 -2.45093e-011 5.71991e-013
